mtllib monkey.mtl
o Suzanne
v 0.518919 1.282025 0.407686
v 0.503759 1.146506 0.538361
v 0.634853 1.116868 0.228904
v -0.277678 1.146506 0.797257
v -0.567506 1.116782 0.627264
v 0.587826 0.965806 0.361983
v -0.450426 0.965806 0.705965
v 0.428662 0.912486 0.511316
v -0.233584 0.912486 0.730724
v 0.338803 1.199229 0.575188
v -0.122925 1.199416 0.728682
v 0.235588 1.003999 0.540873
v -0.061055 1.003999 0.639153
v 0.121847 1.169459 0.485731
v -0.003207 1.168927 0.527068
v 0.356945 1.349249 0.461955
v -0.202939 1.348469 0.648110
v 0.170191 1.325412 0.343483
v -0.126452 1.325412 0.441764
v 0.333995 1.374031 0.216868
v -0.333452 1.374031 0.437999
v -0.367526 1.282611 0.700994
v 0.522429 1.287218 0.164593
v -0.515823 1.287218 0.508575
v 0.266151 0.100558 1.074990
v -0.103270 0.138257 1.149191
v 0.573288 0.142847 0.923705
v 0.310284 0.744543 0.553787
v 0.292763 0.810353 0.783297
v 0.045541 0.814419 0.871877
v -0.114050 0.731285 0.693725
v 0.622545 0.844976 0.421537
v 0.241756 0.933858 0.782992
v 0.068150 0.936987 0.822633
v 0.652436 1.112305 0.349999
v -0.754339 0.969580 0.605705
v 0.784469 1.286263 0.145983
v -0.747621 1.280626 0.666767
v 0.231961 1.656658 0.220374
v 0.278047 1.618859 0.361474
v -0.248989 1.657745 0.380920
v -0.195447 1.614813 0.526027
v 0.082998 1.330115 0.596305
v 0.049971 1.361882 0.478931
v 0.262311 1.274208 0.488301
v 0.333988 1.415003 0.359075
v -0.204105 1.424357 0.542387
v -0.446150 1.155584 0.707055
v -0.471348 0.873239 0.781604
v 0.002114 1.118601 0.657871
v -0.110098 1.266644 0.617745
v 0.219932 0.234130 1.123145
v 0.348714 0.366064 1.040916
v 0.186856 0.360048 1.100387
v 0.180181 0.740884 0.881624
v 0.145387 0.890938 0.765442
v 0.156792 0.849265 0.799867
v 0.167835 0.881287 0.833198
v 0.320069 0.292029 0.996524
v 0.160884 0.251695 1.057319
v -0.112510 1.131953 0.709253
v -0.252289 1.072726 0.754405
v -0.345608 1.091211 0.748523
v -0.466351 1.229624 0.661491
v 0.447911 1.342334 0.369932
v -0.334296 1.340842 0.630717
v 0.341849 1.363297 0.423759
v -0.205498 1.357589 0.599722
v 0.573492 1.227559 0.310539
v 0.585888 1.147919 0.356135
v 0.491186 1.042716 0.491110
v 0.314149 1.127970 0.566090
v 0.016349 1.311085 0.383888
v 0.211773 1.530956 0.138139
v -0.283857 1.530468 0.301207
v 0.396992 1.305313 0.061464
v -0.473808 1.307501 0.351074
v -0.737473 1.109287 0.363508
v 0.760839 0.933053 0.125934
v -0.351155 0.764571 0.653286
v 0.091357 0.356798 0.601466
v 0.261585 0.433082 0.481013
v -0.117441 0.447146 0.652752
v 0.168066 0.026353 0.920476
v 0.493768 0.063316 0.795685
v -0.119536 0.053679 0.990304
v -0.278598 0.119409 -0.477341
v 0.182191 0.172124 -0.229030
v -0.563520 0.220185 -0.063624
v -0.102049 0.093478 0.018597
v 0.734114 0.756760 -0.046638
v -0.795329 0.726184 0.456557
v -0.227697 0.481800 -0.875300
v -0.794392 0.581203 -0.510458
v -0.189400 1.529380 -0.250627
v 0.253645 1.445013 -0.388282
v -0.646118 1.430752 -0.109815
v 0.106291 1.126013 -0.793354
v -0.372501 1.063133 -0.797720
v -0.753974 1.126013 -0.508341
v 0.620074 1.114429 -0.083094
v 0.594129 1.141583 -0.365016
v -0.889558 1.141583 0.126542
v 0.460211 0.943094 -0.735283
v -1.006465 0.937304 -0.249793
v 0.553440 0.689083 -0.654279
v -1.026304 0.689566 -0.126421
v -0.995415 0.806909 0.028697
v 0.617898 0.755815 -0.473690
v 0.420139 0.399793 -0.120914
v -0.691276 0.425148 0.266629
v 0.281999 0.352939 -0.519877
v -0.848330 0.353068 0.113006
v 0.734689 0.819772 -0.652963
v -1.338326 0.828240 -0.074127
v 0.883535 0.801474 -0.846666
v 0.904572 0.628017 -0.795938
v 1.048772 0.624979 -0.842628
v -1.395186 0.630563 -0.035278
v -1.539668 0.627439 0.014074
v 0.943481 0.375643 -0.576317
v -1.287289 0.408486 0.088282
v -1.463948 0.401825 0.089472
v -1.142145 0.370846 0.214711
v 0.671296 0.447256 -0.188440
v -0.804092 0.496963 0.223271
v 0.882041 0.392011 -0.644491
v -1.153260 0.666612 -0.027373
v 0.556818 0.501855 -0.248135
v -0.958906 0.443278 0.134048
v 0.656621 0.446306 -0.399861
v 0.576610 0.525741 -0.447402
v -0.929122 0.524762 0.052988
v 0.714996 0.660175 -0.648123
v 0.609121 0.322670 -0.343817
v 0.945557 0.300450 -0.714761
v -1.176236 0.266350 0.080222
v 0.862009 0.709273 -0.973020
v -1.464984 0.717268 -0.205846
vt 0.900073 0.600696
vt 0.865293 0.596428
vt 0.920246 0.524366
vt 0.863045 0.814501
vt 0.897948 0.811769
vt 0.914742 0.888926
vt 0.798506 0.569552
vt 0.853018 0.521562
vt 0.795130 0.838386
vt 0.847458 0.888748
vt 0.860051 0.630865
vt 0.859266 0.779911
vt 0.842259 0.702752
vt 0.791018 0.645443
vt 0.897193 0.634433
vt 0.896148 0.777610
vt 0.844750 0.707253
vt 0.921180 0.713713
vt 0.968213 0.770220
vt 0.968392 0.645333
vt 0.965038 0.841671
vt 0.968392 0.573812
vt 0.611847 0.159877
vt 0.660791 0.225158
vt 0.535391 0.189604
vt 0.377394 0.233169
vt 0.423632 0.158139
vt 0.500449 0.191834
vt 0.696892 0.314498
vt 0.655324 0.271895
vt 0.718690 0.256613
vt 0.434535 0.380359
vt 0.424353 0.400567
vt 0.340548 0.318412
vt 0.523776 0.386711
vt 0.609776 0.376532
vt 0.619594 0.396083
vt 0.522030 0.346077
vt 0.610356 0.339422
vt 0.579590 0.310661
vt 0.438956 0.343010
vt 0.650757 0.299855
vt 0.389878 0.303980
vt 0.581249 0.274621
vt 0.491024 0.260727
vt 0.515323 0.070730
vt 0.521557 0.052615
vt 0.551123 0.062478
vt 0.487209 0.061933
vt 0.545922 0.166925
vt 0.529730 0.083315
vt 0.512546 0.085541
vt 0.493431 0.169151
vt 0.519132 0.185382
vt 0.519841 0.200843
vt 0.517577 0.190607
vt 0.517863 0.153908
vt 0.523492 0.078282
vt 0.515253 0.076401
vt 0.426270 0.263573
vt 0.456830 0.275187
vt 0.619747 0.263868
vt 0.408797 0.269807
vt 0.391580 0.287347
vt 0.413540 0.324355
vt 0.603695 0.327778
vt 0.439502 0.330982
vt 0.647785 0.283486
vt 0.628962 0.425427
vt 0.524536 0.433700
vt 0.415857 0.430491
vt 0.350292 0.396229
vt 0.692106 0.388274
vt 0.262597 0.316840
vt 0.766492 0.308454
vt 0.643405 0.019704
vt 0.558356 0.053724
vt 0.539877 0.021327
vt 0.394896 0.019215
vt 0.511783 0.021558
vt 0.399481 0.082116
vt 0.479748 0.053805
vt 0.645964 0.082889
vt 0.355825 0.196456
vt 0.823446 0.091731
vt 0.805584 0.010786
vt 0.923249 0.061717
vt 0.232648 0.003484
vt 0.927090 0.385070
vt 0.915360 0.259804
vt 0.999856 0.254640
vt 0.098965 0.266968
vt 0.087610 0.412904
vt 0.000144 0.259113
vt 0.114059 0.179686
vt 0.011829 0.155367
vt 0.963770 0.173241
vt 0.861899 0.236042
vt 0.836684 0.203906
vt 0.871997 0.327847
vt 0.819308 0.278589
vt 0.208596 0.287729
vt 0.147220 0.341845
vt 0.159892 0.240546
vt 0.786595 0.369001
vt 0.825956 0.455045
vt 0.249207 0.387964
vt 0.763149 0.431455
vt 0.279331 0.457858
vt 0.217614 0.477521
vt 0.314147 0.266573
vt 0.259722 0.208046
vt 0.772331 0.210087
vt 0.819338 0.213963
vt 0.203277 0.217482
vt 0.781780 0.141935
vt 0.245969 0.151002
vt 0.200481 0.102779
vt 0.854987 0.141773
vt 0.196622 0.155241
vt 0.107997 0.046396
vt 0.197818 0.864697
vt 0.137396 0.774300
vt 0.195111 0.800886
vt 0.560548 0.806371
vt 0.538067 0.730335
vt 0.618903 0.781339
vt 0.183755 0.725412
vt 0.225920 0.744218
vt 0.356280 0.692786
vt 0.253991 0.699219
vt 0.357746 0.622754
vt 0.442893 0.725137
vt 0.436457 0.668277
vt 0.491469 0.817831
vt 0.591638 0.871934
vt 0.451245 0.878689
vt 0.271953 0.812762
vt 0.796877 0.178399
vt 0.230248 0.179152
vt 0.393069 0.690184
vt 0.391039 0.611891
vt 0.343481 0.856604
vt 0.332922 0.748250
vt 0.425874 0.753736
vt 0.529470 0.751629
vt 0.316181 0.720207
vt 0.484068 0.628776
vt 0.568363 0.712314
vt 0.273470 0.604646
vt 0.216123 0.678120
vt 0.661965 0.735554
vt 0.707492 0.759884
vt 0.742304 0.597357
vt 0.044323 0.542309
vt 0.106750 0.582589
vt 0.095807 0.725654
vt 0.658213 0.585676
vt 0.498072 0.552315
vt 0.791018 0.762238
vt 0.918898 0.699697
vt 0.461186 0.311213
vt 0.626943 0.320654
vt 0.734010 0.317916
vt 0.176788 0.196179
vt 0.392564 0.823320
vt 0.049526 0.748824
vt 0.834578 0.206879
vn 0.6495 0.6633 0.3718
vn 0.7396 0.4225 0.5239
vn 0.9010 0.2447 0.3583
vn -0.2787 0.4251 0.8612
vn -0.2963 0.6664 0.6842
vn -0.5090 0.2472 0.8245
vn 0.3927 -0.0334 0.9190
vn 0.5472 -0.2673 0.7932
vn 0.7042 -0.3003 0.6433
vn 0.0338 -0.2674 0.9630
vn 0.2315 -0.0352 0.9722
vn -0.1808 -0.3003 0.9365
vn -0.0535 0.3715 0.9269
vn 0.5960 0.3711 0.7121
vn -0.4300 0.4170 0.8008
vn -0.3858 0.0420 0.9216
vn -0.2104 0.7794 0.5902
vn 0.5246 0.7777 0.3464
vn 0.8263 0.4140 0.3818
vn 0.5215 0.8475 0.0986
vn 0.2290 0.9731 -0.0239
vn 0.4136 0.9097 0.0378
vn 0.4488 0.8437 0.2945
vn -0.3052 0.9111 0.2771
vn -0.3255 0.9054 0.2726
vn 0.8302 0.5569 0.0239
vn -0.1753 0.8445 0.5060
vn 0.4571 -0.7017 0.5465
vn 0.7087 -0.5996 0.3717
vn 0.6885 0.0004 0.7252
vn -0.3687 -0.7227 0.5846
vn -0.5099 -0.1669 0.8439
vn -0.1030 0.2525 0.9621
vn 0.6760 0.2073 0.7072
vn 0.6754 0.2700 0.6862
vn 0.8682 -0.0858 0.4887
vn 0.2965 0.9392 0.1730
vn -0.1421 0.9880 0.0606
vn -0.8164 0.5010 -0.2872
vn 0.0614 0.9682 0.2424
vn -0.1238 0.9484 0.2920
vn 0.1399 0.9891 -0.0460
vn 0.1030 0.9671 0.2328
vn 0.5009 0.3822 0.7765
vn 0.5615 0.1360 0.8162
vn 0.4222 0.4076 0.8097
vn 0.0531 0.2975 0.9533
vn -0.0405 0.2817 0.9586
vn 0.0411 0.0837 0.9956
vn -0.1175 0.1755 0.9774
vn 0.4632 0.5009 0.7311
vn -0.2521 0.1431 0.9571
vn 0.0002 0.4078 0.9131
vn 0.6734 0.4249 0.6050
vn 0.2086 0.6023 0.7706
vn 0.3169 0.4815 0.8172
vn 0.1815 0.7019 0.6887
vn 0.3136 0.2763 0.9085
vn 0.2834 -0.6414 0.7130
vn 0.7134 -0.6855 0.1453
vn -0.4129 -0.3798 0.8278
vn 0.8255 0.4049 0.3933
vn 0.4422 0.2734 0.8542
vn 0.6420 0.2689 0.7180
vn 0.2561 0.2015 0.9454
vn 0.1136 0.4404 0.8906
vn -0.9493 0.0000 0.3145
vn -0.2134 0.6307 -0.7461
vn 0.5920 0.7891 0.1641
vn 0.7106 0.6961 0.1022
vn 0.6824 0.3975 0.6134
vn 0.3061 0.4417 0.8433
vn -0.3826 0.5580 0.7364
vn -0.6677 0.4901 0.5603
vn -0.2832 0.2582 0.9236
vn 0.6717 0.6167 0.4106
vn -0.5325 0.2909 0.7949
vn 0.8263 0.4407 0.3507
vn 0.3851 -0.2969 0.8738
vn 0.2684 0.2607 0.9274
vn 0.4130 0.0448 0.9096
vn 0.5801 0.2364 0.7795
vn -0.1173 0.2148 0.9696
vn -0.0292 0.1664 0.9856
vn -0.5635 0.2575 0.7849
vn -0.6107 0.7737 -0.1687
vn -0.0419 0.7779 0.6269
vn 0.2813 0.6218 0.7309
vn 0.3603 0.5426 0.7588
vn -0.1777 0.8308 -0.5275
vn -0.4648 0.3238 -0.8241
vn -0.0995 0.9392 -0.3288
vn -0.1277 0.3248 -0.9371
vn 0.2255 0.4720 -0.8523
vn -0.7157 0.5009 -0.4867
vn 0.5091 0.4819 -0.7132
vn 0.4082 0.7101 -0.5737
vn -0.6804 0.6979 -0.2238
vn -0.8414 0.5036 0.1961
vn 0.9775 -0.1758 -0.1169
vn 0.8014 0.5080 -0.3158
vn -0.1515 -0.9531 -0.2622
vn -0.1809 -0.7031 -0.6877
vn -0.2410 -0.7025 -0.6697
vn -0.3821 -0.9159 0.1232
vn 0.0256 -0.9931 0.1143
vn 0.8007 -0.5837 -0.1348
vn -0.6620 -0.7477 -0.0515
vn 0.8328 0.0541 -0.5509
vn -0.6582 -0.4882 -0.5731
vn 0.2655 -0.9444 -0.1940
vn -0.2875 -0.7049 0.6485
vn 0.3205 -0.9448 0.0679
vn 0.3645 -0.9246 0.1107
vn 0.1726 -0.9785 -0.1126
vn -0.2967 -0.9004 0.3182
vn 0.0987 0.9722 -0.2122
vn -0.0754 0.7802 -0.6210
vn -0.0958 0.7732 -0.6269
vn -0.3092 0.7802 -0.5438
vn -0.2131 0.9709 -0.1088
vn -0.2971 0.7735 -0.5598
vn -0.5697 0.0088 -0.8218
vn -0.3463 0.0630 -0.9360
vn -0.3524 0.0370 -0.9351
vn 0.2342 -0.0547 -0.9706
vn 0.3290 0.1237 -0.9362
vn 0.3123 -0.1827 -0.9323
vn 0.6559 0.7231 -0.2168
vn 0.8202 0.5040 -0.2707
vn 0.8198 0.3335 -0.4655
vn -0.8010 0.5183 0.2996
vn -0.6613 0.7189 0.2141
vn -0.9371 0.3430 0.0652
vn -0.0571 0.9920 -0.1122
vn -0.0389 0.9904 -0.1326
vn -0.2488 0.9591 -0.1352
vn -0.9236 -0.1934 0.3309
vn -0.7373 -0.2583 0.6242
vn 0.9628 0.2001 -0.1814
vn -0.8958 -0.0374 0.4428
vn 0.9910 0.1325 -0.0183
vn -0.8760 0.4729 -0.0949
vn 0.1486 0.8412 -0.5199
vn 0.6942 -0.7197 -0.0122
vn 0.4446 -0.8751 0.1910
vn 0.6258 -0.7521 0.2064
vn -0.4471 -0.6016 0.6619
vn -0.1465 -0.6357 0.7579
vn -0.2226 -0.7435 0.6305
vn 0.7405 -0.6068 0.2888
vn 0.8240 -0.4552 0.3374
vn 0.9599 -0.2721 -0.0675
vn -0.9473 -0.0346 0.3183
vn 0.3296 -0.7056 -0.6273
vn -0.0455 -0.7086 -0.7041
vn 0.3607 -0.5825 -0.7284
vn -0.1525 -0.9883 0.0090
vn -0.6722 -0.6746 -0.3050
vn -0.4668 -0.8797 -0.0910
vn -0.5800 -0.6800 -0.4486
vn -0.2089 -0.8023 -0.5592
vn -0.6348 -0.7277 -0.2599
vn -0.0185 0.9481 -0.3174
vn -0.8261 0.1616 0.5398
vn 0.3200 0.0932 0.9428
vn 0.4471 0.4823 0.7533
vn 0.7394 0.0317 0.6726
vn 0.5450 0.4937 0.6777
vn 0.0310 0.3799 0.9245
vn -0.7017 -0.6443 0.3042
vn -0.0912 0.5129 0.8536
vn -0.4014 -0.0010 0.9159
vn -0.2595 0.7675 0.5863
vn 0.4627 0.8574 0.2252
vn 0.5135 0.7194 0.4677
vn 0.7551 0.1771 0.6312
vn 0.3158 0.9488 0.0026
vn 0.8143 0.0426 0.5789
vn -0.3186 0.0612 0.9459
vn -0.1003 0.1688 0.9805
vn 0.7316 -0.1510 0.6648
vn 0.9346 0.2210 0.2789
vn 0.8484 -0.5224 -0.0857
vn -0.3489 -0.5834 0.7335
vn -0.4222 0.0616 0.9044
vn -0.6986 -0.1032 0.7081
vn -0.8088 -0.1409 0.5709
vn -0.9069 -0.0160 0.4211
vn -0.8792 -0.3229 0.3503
vn 0.5152 0.6854 0.5145
vn 0.0941 0.7850 0.6123
vn -0.1897 0.9620 0.1965
vn 0.4353 -0.7809 0.4481
vn 0.8329 -0.4810 0.2737
vn 0.1335 -0.8363 0.5317
vn 0.1531 -0.7988 0.5818
vn 0.7750 -0.1020 -0.6237
vn 0.0069 0.0585 -0.9983
vn -0.4943 0.7378 -0.4597
vn 0.1602 0.7716 -0.6156
vn -0.4472 -0.5664 -0.6923
vn -0.3775 -0.6086 -0.6979
vn 0.1773 -0.4818 -0.8581
vn -0.2807 -0.6286 -0.7253
vn -0.7769 0.4040 -0.4829
vn -0.4076 -0.8818 0.2374
vn -0.1933 -0.6512 -0.7339
vn 0.3457 -0.5755 -0.7412
vn 0.0227 -0.9387 0.3440
vn 0.2921 -0.7998 0.5244
vn 0.9213 0.0526 0.3853
vn -0.5092 0.0529 0.8590
vn 0.0546 -0.2008 0.9781
vn 0.5408 -0.2028 0.8163
vn 0.8618 0.0413 0.5055
vn -0.3571 0.8477 0.3924
vn -0.1984 0.9731 0.1170
vn 0.4241 0.9052 0.0255
vn -0.6516 0.5566 0.5155
vn 0.9870 0.0551 0.1510
vn 0.9143 0.1752 -0.3651
vn -0.9386 0.1993 0.2817
vn -0.6348 0.3962 0.6633
vn 0.8882 -0.3335 0.3161
vn -0.5580 -0.1482 0.8165
vn 0.5655 0.1456 0.8118
vn -0.1331 0.6389 0.7576
vn 0.1014 0.4134 0.9049
vn 0.2158 0.3295 0.9192
vn -0.1509 0.3924 0.9073
vn 0.3483 -0.0966 0.9324
vn 0.3854 -0.3045 0.8711
vn 0.5400 0.8152 -0.2095
vn -0.6879 0.4715 -0.5519
vn 0.2646 0.4978 -0.8259
vn 0.3222 -0.8496 -0.4176
vn -0.2970 -0.9229 0.2449
vn -0.2722 -0.9611 0.0466
vn 0.1155 0.9683 -0.2216
vn -0.0081 0.1303 -0.9914
vn -0.5987 0.0475 -0.7996
vn -0.8002 -0.0384 -0.5986
vn -0.8641 -0.1672 -0.4747
vn -0.8358 0.1452 -0.5295
vn 0.3223 0.3436 -0.8821
vn -0.7839 0.4103 -0.4661
vn 0.4304 0.6264 -0.6499
vn -0.7389 0.6166 -0.2715
vn 0.9563 0.1323 -0.2606
vn -0.6626 -0.4888 0.5675
vn -0.0301 -0.8927 0.4496
vn 0.3532 -0.9355 -0.0124
vn 0.2995 0.3011 0.9053
vn -0.0863 0.9234 0.3740
vn -0.0335 0.9467 0.3204
vn -0.4314 0.8743 0.2225
vn -0.1037 0.7002 0.7064
vn 0.9714 -0.1537 0.1809
vn -0.4253 0.8693 -0.2519
vn -0.3138 -0.7096 0.6309
vn -0.5183 0.7235 -0.4560
vn 0.1282 -0.4714 -0.8725
usemtl Monkey
s 1
f 1/1/1 2/2/2 3/3/3
f 4/4/4 22/5/5 5/6/6
f 2/2/7 8/7/8 6/8/9
f 9/9/10 4/4/11 7/10/12
f 2/2/7 10/11/13 8/7/8
f 11/12/14 4/4/11 9/9/10
f 14/13/15 12/14/16 10/11/13
f 10/11/13 16/15/17 14/13/15
f 17/16/18 11/12/14 15/17/19
f 17/16/18 15/17/19 19/18/20
f 17/16/18 19/18/20 21/19/21
f 1/1/1 20/20/22 16/15/23
f 22/5/5 21/19/24 24/21/25
f 3/3/26 23/22/26 1/1/26
f 2/2/7 16/15/17 10/11/13
f 11/12/14 17/16/18 4/4/11
f 2/2/2 1/1/1 16/15/23
f 17/16/27 22/5/5 4/4/4
f 28/23/28 32/24/29 33/25/30
f 49/26/31 31/27/32 34/28/33
f 37/29/34 35/30/35 79/31/36
f 42/32/37 41/33/38 38/34/39
f 44/35/40 40/36/41 39/37/42
f 44/35/40 42/32/37 43/38/43
f 46/39/44 43/38/45 45/40/46
f 47/41/47 43/38/48 42/32/49
f 38/34/50 47/41/47 42/32/49
f 37/29/34 46/39/44 69/42/51
f 49/26/52 64/43/53 38/34/50
f 33/25/30 32/24/29 72/44/54
f 72/44/55 50/45/56 33/25/57
f 45/40/46 50/45/56 72/44/55
f 52/46/58 25/47/59 27/48/60
f 25/47/59 52/46/58 26/49/61
f 29/50/62 53/51/63 27/48/64
f 54/52/65 30/53/66 26/49/61
f 29/50/62 54/52/65 53/51/63
f 58/54/67 56/55/67 57/56/67
f 58/54/68 56/55/69 34/28/70
f 33/25/71 55/57/72 29/50/62
f 55/57/72 33/25/71 30/53/66
f 56/55/73 33/25/74 50/45/75
f 34/28/70 56/55/69 50/45/76
f 54/52/65 59/58/77 53/51/63
f 54/52/65 60/59/78 59/58/77
f 62/60/79 50/45/80 61/61/81
f 32/24/29 35/30/35 71/62/82
f 63/63/83 49/26/52 62/60/84
f 48/64/85 49/26/52 63/63/83
f 47/41/47 64/43/53 66/65/86
f 45/40/46 67/66/87 46/39/44
f 47/41/47 66/65/86 68/67/88
f 69/42/51 70/68/89 35/30/35
f 35/30/35 70/68/89 71/62/82
f 44/35/90 74/69/91 73/70/92
f 75/71/93 44/35/90 73/70/92
f 41/33/94 75/71/93 77/72/95
f 37/29/96 76/73/97 39/37/42
f 38/34/39 77/72/98 78/74/99
f 79/31/100 101/75/101 37/29/96
f 81/76/102 85/77/103 84/78/104
f 81/79/102 84/80/104 83/81/105
f 27/48/60 84/78/106 85/77/107
f 84/78/106 26/49/61 86/82/108
f 27/48/60 85/77/107 82/83/109
f 86/82/108 26/49/61 83/81/110
f 85/77/103 81/76/102 82/83/111
f 31/27/32 49/26/31 80/84/112
f 88/85/113 90/86/114 87/87/115
f 90/86/114 82/83/111 81/76/102
f 83/81/105 90/88/116 81/79/102
f 95/89/117 98/90/118 99/91/119
f 100/92/120 95/93/121 99/94/122
f 94/95/123 99/94/124 93/96/125
f 93/97/126 104/98/127 106/99/128
f 96/100/129 102/101/130 104/98/131
f 103/102/132 97/103/133 105/104/134
f 96/100/129 101/75/101 102/101/130
f 78/74/99 97/103/133 103/102/132
f 76/105/135 95/89/117 73/106/92
f 77/107/136 95/93/121 97/103/137
f 73/106/92 74/108/91 76/105/135
f 75/109/93 73/110/92 77/107/136
f 36/111/138 78/74/99 92/112/139
f 91/113/140 102/101/130 101/75/101
f 103/102/132 92/112/141 78/74/99
f 109/114/142 104/98/131 102/101/130
f 105/104/134 108/115/143 103/102/132
f 104/98/131 109/114/142 106/99/144
f 88/85/145 110/116/146 82/83/147
f 80/84/148 111/117/149 89/118/150
f 79/31/100 110/116/151 91/113/152
f 79/31/100 82/83/153 110/116/151
f 80/84/112 83/81/154 31/27/32
f 112/119/155 93/97/156 106/99/157
f 113/120/158 94/95/159 89/118/160
f 94/95/161 87/121/162 89/118/163
f 115/122/164 120/123/165 119/124/166
f 117/125/167 121/126/168 118/127/169
f 119/124/170 123/128/171 122/129/172
f 126/130/173 124/131/174 111/132/149
f 121/126/168 131/133/175 125/134/176
f 134/135/177 116/136/178 114/137/179
f 128/138/180 115/122/181 119/124/170
f 110/116/182 129/139/183 91/113/184
f 111/117/149 92/112/185 126/140/173
f 125/134/176 129/141/183 110/142/182
f 91/113/184 129/139/183 109/114/142
f 125/134/176 131/133/175 129/141/183
f 108/143/186 133/144/187 126/130/188
f 108/143/186 115/122/164 133/144/187
f 92/112/141 108/115/189 126/140/190
f 132/145/191 134/135/177 114/137/179
f 131/133/175 134/135/177 132/145/191
f 127/146/192 134/135/177 131/133/175
f 128/138/180 122/129/172 130/147/193
f 134/135/177 127/146/192 117/125/167
f 121/126/168 135/148/194 136/149/195
f 113/150/158 124/131/196 137/151/197
f 118/127/198 138/152/199 116/153/178
f 116/153/178 138/152/199 114/154/179
f 108/155/143 107/156/200 139/157/201
f 136/149/202 106/158/203 138/152/199
f 137/151/204 107/156/205 113/150/158
f 123/128/171 139/157/206 137/151/207
f 138/152/199 118/127/198 136/149/202
f 123/128/171 120/123/165 139/157/206
f 106/158/203 135/148/208 112/159/209
f 110/142/146 135/148/210 125/134/211
f 3/3/212 2/2/212 6/8/212
f 7/10/213 4/4/213 5/6/213
f 8/7/214 10/11/214 12/14/214
f 13/160/215 11/12/215 9/9/215
f 15/17/19 11/12/14 13/160/216
f 16/15/17 18/161/217 14/13/15
f 16/15/17 20/20/218 18/161/217
f 1/1/1 23/22/219 20/20/22
f 22/5/5 17/16/27 21/19/24
f 5/6/220 22/5/220 24/21/220
f 28/23/221 29/50/62 27/48/222
f 26/49/223 30/53/224 31/27/32
f 32/24/29 79/31/225 35/30/35
f 38/34/50 36/111/226 49/26/52
f 39/37/42 40/36/41 37/29/96
f 44/35/40 43/38/43 40/36/41
f 44/35/40 41/33/38 42/32/37
f 46/39/44 40/36/227 43/38/45
f 37/29/34 40/36/227 46/39/44
f 38/34/50 64/43/53 47/41/47
f 35/30/35 37/29/34 69/42/51
f 49/26/52 48/64/85 64/43/53
f 34/28/33 50/45/228 49/26/31
f 43/38/48 47/41/47 51/162/229
f 45/40/46 43/38/45 50/45/56
f 50/45/80 43/38/48 51/162/229
f 53/51/63 52/46/58 27/48/64
f 52/46/58 54/52/65 26/49/61
f 54/52/65 55/57/72 30/53/66
f 29/50/62 55/57/72 54/52/65
f 58/54/68 33/25/74 56/55/73
f 34/28/70 33/25/74 58/54/68
f 30/53/224 33/25/230 34/28/231
f 28/23/221 33/25/71 29/50/62
f 30/53/224 34/28/231 31/27/32
f 52/46/58 59/58/77 60/59/78
f 52/46/58 53/51/63 59/58/77
f 60/59/78 54/52/65 52/46/58
f 61/61/81 50/45/80 51/162/229
f 72/44/232 32/24/232 71/62/232
f 62/60/79 49/26/233 50/45/80
f 46/39/44 65/163/234 69/42/51
f 51/162/229 47/41/47 68/67/88
f 46/39/44 67/66/87 65/163/234
f 44/35/90 39/37/235 74/69/91
f 75/71/93 41/33/94 44/35/90
f 39/37/235 76/73/236 74/69/91
f 37/29/96 101/164/101 76/73/97
f 38/34/39 41/33/38 77/72/98
f 36/111/138 38/34/39 78/74/99
f 80/84/112 49/26/31 36/111/138
f 84/78/106 25/47/59 26/49/61
f 27/48/60 25/47/59 84/78/106
f 83/81/110 84/80/106 86/82/108
f 28/23/221 27/48/222 82/83/153
f 83/81/154 26/49/223 31/27/32
f 28/23/28 79/31/225 32/24/29
f 112/119/155 88/85/237 87/87/162
f 89/118/238 87/121/239 90/88/116
f 90/86/114 88/85/113 82/83/111
f 83/81/105 89/118/238 90/88/116
f 92/112/139 80/84/112 36/111/138
f 93/97/156 112/119/155 87/87/162
f 94/95/161 93/96/156 87/121/162
f 95/89/117 96/100/240 98/90/118
f 100/92/120 97/103/137 95/93/121
f 99/91/124 98/90/241 93/97/125
f 94/95/123 100/92/242 99/94/124
f 94/95/243 107/165/244 105/104/245
f 93/97/126 98/90/246 104/98/127
f 105/104/245 100/92/247 94/95/243
f 98/90/246 96/100/248 104/98/127
f 105/104/245 97/103/249 100/92/247
f 96/100/129 76/105/97 101/75/101
f 78/74/99 77/107/98 97/103/133
f 76/105/135 96/100/240 95/89/117
f 77/107/136 73/110/92 95/93/121
f 79/31/100 91/113/152 101/75/101
f 91/113/140 109/114/250 102/101/130
f 103/102/132 108/115/189 92/112/141
f 105/104/134 107/165/200 108/115/143
f 89/118/150 83/81/251 80/84/148
f 80/84/148 92/112/185 111/117/149
f 79/31/100 28/23/221 82/83/153
f 113/120/158 107/165/205 94/95/159
f 89/118/160 111/117/252 113/120/158
f 88/85/145 112/119/253 110/116/146
f 116/136/178 117/125/254 118/127/198
f 119/124/170 120/123/165 123/128/171
f 122/129/255 123/128/256 124/131/174
f 121/126/168 127/146/192 131/133/175
f 126/130/173 122/129/255 124/131/174
f 117/125/167 127/146/192 121/126/168
f 134/135/177 117/125/167 116/136/178
f 132/145/191 129/141/183 131/133/175
f 130/147/193 126/130/257 133/144/258
f 109/166/142 129/141/183 132/145/259
f 109/166/142 132/145/259 114/137/260
f 133/144/258 115/122/181 128/138/180
f 122/129/172 126/130/257 130/147/193
f 130/147/193 133/144/258 128/138/180
f 128/138/180 119/124/170 122/129/172
f 121/126/168 125/134/176 135/148/194
f 113/150/158 111/132/252 124/131/196
f 137/151/207 124/131/261 123/128/171
f 121/126/168 136/149/195 118/127/169
f 120/123/165 115/167/164 139/157/206
f 115/167/164 108/155/186 139/157/206
f 114/154/260 138/152/262 106/158/144
f 136/149/202 135/148/208 106/158/203
f 137/151/204 139/157/263 107/156/205
f 109/114/142 114/168/260 106/99/144
f 110/142/146 112/159/253 135/148/210
