mtllib monkey.mtl
o Suzanne
v 0.546875 0.909289 0.408738
v -0.546875 0.909289 0.408738
v -0.348823 0.854209 0.499390
v 0.348823 0.854209 0.499390
v 0.103827 1.031419 0.406156
v -0.103827 1.031419 0.406156
v 0.393837 1.296153 0.418242
v 0.156250 1.271704 0.266804
v -0.156250 1.271704 0.266804
v -0.464863 1.196537 0.190958
v -0.393837 1.296153 0.418242
v 0.464863 1.196537 0.190958
v 0.633263 1.062391 0.300145
v -0.633263 1.062391 0.300145
v -0.320532 1.081502 0.573267
v 0.320532 1.081502 0.573267
v 0.000000 1.291260 0.420877
v 0.000000 0.192190 0.986853
v 0.000000 0.818699 0.722265
v 0.000000 1.269034 0.229253
v 0.000000 0.787021 -1.088080
v 0.000000 -0.017928 -0.511414
v -0.226815 0.675695 0.501225
v 0.226815 0.675695 0.501225
v -0.356999 0.067718 0.921558
v 0.356999 0.067718 0.921558
v 0.586132 0.800448 0.468518
v 0.832894 1.226332 0.267466
v -0.238492 1.590039 0.143425
v 0.224125 1.069937 0.520140
v -0.096071 0.239467 0.971578
v 0.000000 0.787361 0.686541
v 0.000000 0.829726 0.651087
v -0.586132 0.800448 0.468518
v -0.832894 1.226332 0.267466
v -0.224831 1.448667 0.333971
v 0.224831 1.448667 0.333971
v -0.123150 0.815448 0.699034
v 0.000000 0.714193 0.772040
v 0.123150 0.815448 0.699034
v 0.096071 0.239467 0.971578
v -0.324415 1.315206 0.426187
v -0.553093 1.145432 0.398235
v -0.414048 0.994094 0.505885
v 0.197297 1.211641 0.437164
v -0.197297 1.211641 0.437164
v 0.324415 1.315206 0.426187
v 0.414048 0.994094 0.505885
v 0.553093 1.145432 0.398235
v -0.224125 1.069937 0.520140
v -0.331325 1.318161 0.099463
v 0.238492 1.590039 0.143425
v -0.785346 0.879819 0.238477
v 0.785346 0.879819 0.238477
v 0.000000 1.488709 -0.406185
v 0.000000 -0.039188 0.795116
v 0.000000 0.302355 0.456051
v 0.854750 0.762224 -0.401937
v -0.852752 0.663699 -0.644257
v -0.748555 0.292054 -0.274378
v -0.214052 0.389679 0.452922
v 0.325481 -0.001874 0.774629
v -0.325481 -0.001874 0.774629
v 0.214052 0.389679 0.452922
v -0.713980 0.959971 -0.738221
v -0.476077 1.390292 -0.418058
v 0.476077 1.390292 -0.418058
v 0.331325 1.318161 0.099463
v -0.755597 1.075102 -0.001410
v 0.755597 1.075102 -0.001410
v 0.713980 0.959971 -0.738221
v -0.394325 0.179608 -0.211545
v 0.394325 0.179608 -0.211545
v -0.717301 0.420012 -0.083144
v -1.381379 0.453295 -0.561046
v -1.090323 0.722239 -0.590359
v 1.207970 0.589509 -0.591975
v 1.090323 0.722239 -0.590359
v 0.717301 0.420012 -0.083144
v -1.147014 0.368480 -0.451398
v 0.736780 0.496416 -0.291126
v -0.736780 0.496416 -0.291126
v -0.854750 0.762224 -0.401937
v -0.864912 0.406300 -0.329396
v 1.147014 0.368480 -0.451398
v 0.864912 0.406300 -0.329396
v -1.207970 0.589509 -0.591975
v -1.227002 0.675611 -0.777030
v 1.227002 0.675611 -0.777030
v 1.381379 0.453295 -0.561046
v 0.748555 0.292054 -0.274378
v 0.852752 0.663699 -0.644257
vt 0.898341 0.617851
vt 0.862861 0.612572
vt 0.920244 0.524371
vt 0.861331 0.798266
vt 0.897011 0.794566
vt 0.914742 0.888926
vt 0.798506 0.569552
vt 0.853018 0.521562
vt 0.795129 0.838386
vt 0.847458 0.888748
vt 0.819696 0.677517
vt 0.821091 0.731468
vt 0.921180 0.713713
vt 0.965928 0.821645
vt 0.968392 0.593858
vt 0.613919 0.156910
vt 0.662732 0.229131
vt 0.540941 0.180043
vt 0.374310 0.231491
vt 0.423476 0.157362
vt 0.497137 0.180107
vt 0.701444 0.312420
vt 0.716668 0.255171
vt 0.424750 0.406746
vt 0.336822 0.319015
vt 0.434953 0.359511
vt 0.521282 0.351496
vt 0.607250 0.356098
vt 0.619392 0.402270
vt 0.648761 0.292196
vt 0.390330 0.296032
vt 0.582120 0.273218
vt 0.457513 0.274759
vt 0.518927 0.072672
vt 0.527109 0.076693
vt 0.519017 0.160549
vt 0.461276 0.311337
vt 0.550889 0.061904
vt 0.510745 0.076681
vt 0.486988 0.061843
vt 0.519132 0.185382
vt 0.519841 0.200843
vt 0.517577 0.190607
vt 0.619457 0.263699
vt 0.419367 0.266052
vt 0.432040 0.329077
vt 0.579480 0.309446
vt 0.608931 0.325978
vt 0.772706 0.305686
vt 0.558254 0.053877
vt 0.636784 0.083229
vt 0.479647 0.053791
vt 0.400621 0.082778
vt 0.318792 0.259643
vt 0.175905 0.137223
vt 0.149539 0.028626
vt 0.226368 0.098615
vt 0.783131 0.156451
vt 0.827740 0.210975
vt 0.248340 0.155313
vt 0.203432 0.216899
vt 0.874203 0.325258
vt 0.874489 0.242181
vt 0.260603 0.315765
vt 0.147220 0.341845
vt 0.145549 0.247319
vt 0.840546 0.202788
vt 0.806925 0.103471
vt 0.854987 0.141773
vt 0.222990 0.848614
vt 0.161809 0.747616
vt 0.198911 0.798981
vt 0.225263 0.743995
vt 0.532373 0.749055
vt 0.413735 0.636813
vt 0.595488 0.754506
vt 0.443165 0.731721
vt 0.407791 0.726649
vt 0.315148 0.729004
vt 0.346731 0.634611
vt 0.350761 0.724799
vt 0.337300 0.863005
vt 0.232656 0.176633
vt 0.557052 0.804584
vt 0.531675 0.853290
vt 0.661965 0.735554
vt 0.707492 0.759884
vt 0.741958 0.591463
vt 0.042009 0.548905
vt 0.106331 0.582808
vt 0.095969 0.726496
vt 0.492946 0.623239
vt 0.658213 0.585676
vt 0.268086 0.619571
vt 0.918898 0.699697
vt 0.553209 0.433063
vt 0.523031 0.433628
vt 0.492809 0.434538
vt 0.692106 0.388274
vt 0.350292 0.396229
vt 0.530189 0.019143
vt 0.647032 0.020893
vt 0.391239 0.020125
vt 0.507714 0.019143
vt 0.882829 0.042675
vt 0.996800 0.204807
vt 0.173127 0.195258
vt 0.006842 0.199644
vt 0.927090 0.385070
vt 0.087610 0.412904
vt 0.826814 0.463153
vt 0.796339 0.395137
vt 0.239014 0.418332
vt 0.207578 0.498306
vt 0.417620 0.864486
vt 0.796858 0.178006
vt 0.049526 0.748824
vn 0.6387 0.2951 0.7106
vn -0.6387 0.2951 0.7106
vn 0.4563 -0.2232 0.8614
vn -0.4563 -0.2232 0.8614
vn -0.5709 0.5998 0.5606
vn 0.5709 0.5998 0.5606
vn 0.4981 0.5138 0.6985
vn -0.1357 0.9223 -0.3618
vn 0.6639 0.7387 -0.1163
vn 0.3013 -0.6972 0.6505
vn -0.3013 -0.6972 0.6505
vn 0.7728 -0.1575 0.6149
vn -0.3354 0.7449 0.5767
vn -0.3273 0.7699 0.5478
vn 0.2619 0.4630 0.8468
vn -0.3604 0.2192 0.9067
vn 0.4179 0.4056 0.8129
vn 0.1509 0.5277 0.8359
vn -0.1509 0.5277 0.8359
vn 0.0944 0.4019 0.9108
vn -0.0816 0.3899 0.9173
vn -0.1403 0.5200 0.8426
vn 0.1704 -0.0280 0.9850
vn -0.1704 -0.0280 0.9850
vn 0.4066 0.3751 0.8331
vn -0.4066 0.3751 0.8331
vn -1.0000 0.0000 0.0000
vn -0.0549 0.9867 0.1529
vn -0.2844 0.4279 0.8579
vn 0.2844 0.4279 0.8579
vn 0.4365 0.2196 0.8725
vn -0.4365 0.2196 0.8725
vn -0.5765 0.7098 0.4048
vn -0.2591 0.4107 0.8742
vn 0.9700 -0.1152 -0.2141
vn 0.9670 0.0754 -0.2432
vn -0.9670 0.0754 -0.2432
vn -0.3239 -0.9450 -0.0455
vn -0.3266 -0.9276 0.1815
vn 0.9578 -0.2459 0.1490
vn -0.9578 -0.2459 0.1490
vn 0.8222 0.5535 -0.1329
vn -0.8222 0.5535 -0.1329
vn -0.9719 0.2264 0.0638
vn 0.8929 0.4344 -0.1183
vn -0.8929 0.4344 -0.1183
vn 0.9124 0.3764 -0.1606
vn 0.1116 -0.5806 0.8065
vn -0.1116 -0.5806 0.8065
vn 0.5050 -0.6483 0.5699
vn -0.5050 -0.6483 0.5699
vn 0.9534 -0.0911 0.2875
vn -0.9534 -0.0911 0.2875
vn 0.3392 -0.7553 0.5608
vn 0.4749 -0.4303 0.7677
vn -0.2242 0.4782 0.8491
vn -0.5090 0.5408 -0.6696
vn 0.6071 0.7258 0.3235
vn -0.6071 0.7258 0.3235
vn -0.6286 0.0447 0.7764
vn -0.8998 -0.4301 -0.0737
vn 0.1468 0.9886 0.0329
vn 0.4308 0.3718 0.8223
vn -0.4308 0.3718 0.8223
vn 0.4767 0.3322 0.8139
vn -0.4767 0.3322 0.8139
vn -0.4080 0.4072 0.8171
vn 0.6348 0.7181 0.2854
vn -0.0693 0.9548 -0.2892
vn 0.1606 0.9148 -0.3706
vn -0.2351 -0.6517 -0.7211
vn -0.1170 -0.7326 -0.6705
vn 0.1170 -0.7326 -0.6705
vn 0.6552 0.1547 0.7394
vn -0.6552 0.1547 0.7394
vn -0.5307 -0.3210 0.7844
vn 0.5307 -0.3210 0.7844
vn -0.4981 0.5138 0.6985
vn 0.1357 0.9223 -0.3618
vn -0.6639 0.7387 -0.1163
vn 0.9081 0.3517 0.2274
vn -0.9081 0.3517 0.2274
vn -0.7728 -0.1575 0.6149
vn 0.3354 0.7449 0.5767
vn 0.3273 0.7699 0.5478
vn -0.2619 0.4630 0.8468
vn 0.3604 0.2192 0.9067
vn -0.4179 0.4056 0.8129
vn 0.0816 0.3899 0.9173
vn 0.1403 0.5200 0.8426
vn -0.0944 0.4019 0.9108
vn -0.6726 0.3215 -0.6665
vn 0.0549 0.9867 0.1529
vn 0.1787 0.4231 0.8883
vn -0.1787 0.4231 0.8883
vn -0.0030 -0.1921 0.9814
vn 0.0030 -0.1921 0.9814
vn 0.5765 0.7098 0.4048
vn 0.2591 0.4107 0.8742
vn 0.6726 0.3215 -0.6665
vn 0.3532 0.5645 -0.7460
vn -0.3532 0.5645 -0.7460
vn 0.1186 -0.6548 -0.7465
vn -0.9700 -0.1152 -0.2141
vn -0.1186 -0.6548 -0.7465
vn -0.0118 -0.7469 0.6648
vn 0.0118 -0.7469 0.6648
vn 0.2667 -0.9075 0.3244
vn 0.9576 0.0059 -0.2880
vn -0.9576 0.0059 -0.2880
vn 0.3239 -0.9450 -0.0455
vn 0.3266 -0.9276 0.1815
vn -0.2667 -0.9075 0.3244
vn 0.3709 -0.6018 -0.7073
vn -0.3709 -0.6018 -0.7073
vn 0.1628 0.6729 -0.7216
vn -0.1628 0.6729 -0.7216
vn 0.1036 0.9610 0.2562
vn 0.4526 -0.0700 -0.8890
vn -0.4526 -0.0700 -0.8890
vn 0.5258 0.8099 0.2599
vn -0.5258 0.8099 0.2599
vn -0.1036 0.9610 0.2562
vn 0.9719 0.2264 0.0638
vn -0.9124 0.3764 -0.1606
vn -0.3392 -0.7553 0.5608
vn -0.4749 -0.4303 0.7677
vn 0.2242 0.4782 0.8491
vn 0.5090 0.5408 -0.6696
vn 0.6286 0.0447 0.7764
vn 0.8998 -0.4301 -0.0737
vn -0.1468 0.9886 0.0329
vn 0.4080 0.4072 0.8171
vn 0.4312 -0.7157 0.5494
vn -0.4312 -0.7157 0.5494
vn -0.6348 0.7181 0.2854
vn 0.0693 0.9548 -0.2892
vn -0.1606 0.9148 -0.3706
vn 0.2351 -0.6517 -0.7211
usemtl Monkey
f 7/1/1 16/2/1 13/3/1
f 15/4/2 11/5/2 14/6/2
f 16/2/3 4/7/3 1/8/3
f 3/9/4 15/4/4 2/10/4
f 16/2/5 7/1/5 5/11/5
f 11/5/6 15/4/6 6/12/6
f 11/5/7 6/12/7 9/13/7
f 11/5/8 9/13/8 10/14/8
f 13/3/9 12/15/9 7/1/9
f 24/16/10 27/17/10 40/18/10
f 34/19/11 23/20/11 38/21/11
f 28/22/12 27/17/12 54/23/12
f 29/24/13 35/25/13 36/26/13
f 17/27/14 37/28/14 52/29/14
f 28/22/15 37/28/15 49/30/15
f 34/19/16 43/31/16 35/25/16
f 40/18/17 27/17/17 30/32/17
f 30/32/18 17/27/18 40/18/18
f 17/27/19 50/33/19 38/21/19
f 18/34/20 41/35/20 40/18/20 39/36/20
f 36/26/21 46/37/21 17/27/21
f 50/33/22 17/27/22 46/37/22
f 41/35/23 18/34/23 26/38/23
f 18/34/24 31/39/24 25/40/24
f 40/18/25 41/35/25 26/38/25
f 31/39/26 38/21/26 25/40/26
f 19/41/27 33/42/27 32/43/27
f 19/41/28 33/42/28 38/21/28
f 33/42/29 40/18/29 17/27/29
f 38/21/30 33/42/30 17/27/30
f 27/17/31 49/30/31 48/44/31
f 43/31/32 34/19/32 44/45/32
f 36/26/33 43/31/33 42/46/33
f 45/47/34 47/48/34 37/28/34
f 54/23/35 70/49/35 28/22/35
f 26/38/36 62/50/36 64/51/36
f 63/52/37 25/40/37 61/53/37
f 23/20/38 34/19/38 53/54/38
f 60/55/39 22/56/39 72/57/39
f 54/23/40 79/58/40 58/59/40
f 74/60/41 53/54/41 83/61/41
f 67/62/42 70/49/42 71/63/42
f 69/64/43 66/65/43 65/66/43
f 53/54/44 69/64/44 83/61/44
f 58/59/45 71/63/45 70/49/45
f 65/66/46 83/61/46 69/64/46
f 71/63/47 58/59/47 92/67/47
f 54/23/48 73/68/48 79/58/48
f 72/57/49 53/54/49 74/60/49
f 54/23/50 24/16/50 73/68/50
f 23/20/51 53/54/51 72/57/51
f 24/16/52 64/51/52 73/68/52
f 72/57/53 61/53/53 23/20/53
f 73/68/54 91/69/54 79/58/54
f 76/70/55 75/71/55 87/72/55
f 87/72/56 75/71/56 80/73/56
f 85/74/57 79/75/57 90/76/57
f 79/75/58 86/77/58 81/78/58
f 84/79/59 74/80/59 82/81/59
f 83/82/60 76/70/60 82/81/60
f 74/60/61 83/61/61 82/83/61
f 85/74/62 86/77/62 79/75/62
f 86/77/63 77/84/63 78/85/63
f 87/72/64 84/79/64 76/70/64
f 86/77/65 78/85/65 81/78/65
f 76/70/66 84/79/66 82/81/66
f 87/72/67 80/73/67 84/79/67
f 90/76/68 89/86/68 78/87/68
f 78/87/69 89/86/69 58/88/69
f 83/89/70 59/90/70 88/91/70
f 91/92/71 92/93/71 89/86/71
f 89/86/72 90/76/72 91/92/72
f 75/71/73 88/91/73 60/94/73
f 13/3/74 16/2/74 1/8/74
f 2/10/75 15/4/75 14/6/75
f 4/7/76 16/2/76 5/11/76
f 6/12/77 15/4/77 3/9/77
f 7/1/78 8/95/78 5/11/78
f 7/1/79 12/15/79 8/95/79
f 14/6/80 11/5/80 10/14/80
f 24/16/81 40/18/81 26/38/81
f 25/40/82 38/21/82 23/20/82
f 35/25/83 53/54/83 34/19/83
f 52/29/84 37/28/84 28/22/84
f 17/27/85 29/24/85 36/26/85
f 35/25/86 43/31/86 36/26/86
f 27/17/87 28/22/87 49/30/87
f 38/21/88 50/33/88 34/19/88
f 37/28/89 17/27/89 45/47/89
f 30/32/90 45/47/90 17/27/90
f 18/34/91 39/36/91 38/21/91 31/39/91
f 68/96/92 20/97/92 17/27/92 52/29/92
f 19/41/93 40/18/93 33/42/93
f 19/41/94 39/36/94 40/18/94
f 38/21/95 39/36/95 19/41/95
f 30/32/96 27/17/96 48/44/96
f 44/45/97 34/19/97 50/33/97
f 37/28/98 47/48/98 49/30/98
f 46/37/99 36/26/99 42/46/99
f 17/27/100 20/97/100 51/98/100 29/24/100
f 68/99/101 52/29/101 28/22/101 70/49/101
f 51/100/102 69/64/102 35/25/102 29/24/102
f 62/50/103 56/101/103 57/102/103 64/51/103
f 53/54/104 35/25/104 69/64/104
f 63/52/105 61/53/105 57/103/105 56/104/105
f 56/104/106 62/50/106 26/38/106 18/34/106
f 25/40/107 63/52/107 56/104/107 18/34/107
f 64/51/108 57/102/108 22/105/108 73/68/108
f 24/16/109 26/38/109 64/51/109
f 61/53/110 25/40/110 23/20/110
f 24/16/111 54/23/111 27/17/111
f 91/69/112 73/68/112 22/105/112
f 22/56/113 57/103/113 61/53/113 72/57/113
f 22/105/114 21/106/114 92/67/114 91/69/114
f 22/56/115 60/55/115 59/107/115 21/108/115
f 71/63/116 21/106/116 55/109/116 67/62/116
f 55/110/117 21/108/117 65/66/117 66/65/117
f 55/109/118 20/111/118 68/112/118 67/62/118
f 21/106/119 71/63/119 92/67/119
f 59/107/120 65/66/120 21/108/120
f 67/62/121 68/112/121 70/49/121
f 69/64/122 51/113/122 66/65/122
f 55/110/123 66/65/123 51/113/123 20/114/123
f 54/23/124 58/59/124 70/49/124
f 65/66/125 59/107/125 83/61/125
f 72/57/126 74/60/126 60/55/126
f 78/85/127 77/84/127 90/76/127
f 77/84/128 85/74/128 90/76/128
f 80/73/129 75/71/129 74/80/129
f 58/115/130 81/78/130 78/85/130
f 79/58/131 81/116/131 58/59/131
f 80/73/132 74/80/132 84/79/132
f 77/84/133 86/77/133 85/74/133
f 90/76/134 79/75/134 91/92/134
f 60/94/135 74/80/135 75/71/135
f 75/71/136 76/117/136 88/91/136
f 76/117/137 83/89/137 88/91/137
f 58/88/138 89/86/138 92/93/138
f 60/94/139 88/91/139 59/90/139
